<svg xmlns="http://www.w3.org/2000/svg" width="97" height="97" viewBox="0 0 97 97"><g fill="none"><g transform="translate(2.251 11)"><rect width="77.142" height="84.24" fill="#FFF" stroke="#317BCF" stroke-width="3" rx="6"/><path fill="#317BCF" d="M6 0h65.142a6 6 0 0 1 6 6v7.785H0V6a6 6 0 0 1 6-6z"/><circle cx="15.999" cy="6.894" r="3" fill="#FFF"/><circle cx="24.468" cy="6.894" r="3" fill="#FFF"/><circle cx="7.53" cy="6.894" r="3" fill="#FFF"/><path fill="#FFF" d="M34.5 9.894a3 3 0 0 1 0-6h36a3 3 0 0 1 0 6h-36z"/></g><g transform="translate(50.5 2)"><circle cx="22.5" cy="22.5" r="22.5" fill="#317BCF" stroke="#FFF" stroke-width="3"/><path fill="#FFF" d="M20.739 27.037v-1.44c0-2.334 1.582-3.774 3.074-5.185 1.165-1.124 2.18-2.161 2.18-3.544 0-1.7-.986-2.88-3.194-2.88-2.24 0-3.762 1.469-3.97 3.745H16.5c.209-3.37 2.687-5.733 6.328-5.733 4.06 0 5.672 2.362 5.672 4.782 0 2.132-1.493 3.485-2.925 4.81-1.344 1.24-2.627 2.45-2.627 4.206v1.239h-2.21zM21.784 33c-1.045 0-1.91-.807-1.91-1.844s.865-1.843 1.91-1.843c1.044 0 1.91.806 1.91 1.843S22.828 33 21.784 33z"/></g></g></svg>
