<svg xmlns="http://www.w3.org/2000/svg" width="24" height="24"><g fill="none" fill-rule="evenodd"><path stroke="#0D3ECC" stroke-linecap="round" stroke-width="1.217" d="M15.652 5s-5.282 4.642 0 9.692c5.283-5.05 0-9.692 0-9.692zm-1.826 3.77s2.087 1.21 4.174 0"/><path fill="#0D3ECC" fill-rule="nonzero" d="M16.435 7.423c0 .149-.117.27-.261.27a.265.265 0 0 1-.261-.27c0-.149.117-.27.26-.27.145 0 .262.121.262.27"/><path stroke="#0D3ECC" stroke-linecap="round" stroke-linejoin="round" stroke-width="1.217" d="M15.652 15.23 13.826 19l1.826-.625 1.826.625zm-4.956-3.768v5.957c0 1.164-3.31 2.883-4.696 0v-2.783l1.201 1.144m3.756-6.472V5m.783 5.383c0 .595-.466 1.079-1.043 1.079-.576 0-1.045-.484-1.045-1.08 0-.595.469-1.074 1.045-1.074.577 0 1.042.48 1.042 1.075z"/></g></svg>